<svg viewBox="0 0 200 200" xmlns="http://www.w3.org/2000/svg">
  <!-- Head -->
  <rect x="40" y="30" width="120" height="100" rx="12" fill="#8b5cf6"/>

  <!-- Eyes -->
  <circle cx="65" cy="60" r="12" fill="#ffffff"/>
  <circle cx="135" cy="60" r="12" fill="#ffffff"/>
  <circle cx="67" cy="62" r="6" fill="#8b5cf6"/>
  <circle cx="137" cy="62" r="6" fill="#8b5cf6"/>

  <!-- Antenna left -->
  <rect x="58" y="5" width="8" height="30" rx="4" fill="#8b5cf6"/>
  <circle cx="62" cy="5" r="6" fill="#a78bfa"/>

  <!-- Antenna right -->
  <rect x="134" y="5" width="8" height="30" rx="4" fill="#8b5cf6"/>
  <circle cx="138" cy="5" r="6" fill="#a78bfa"/>

  <!-- Mouth -->
  <path d="M 80 95 Q 100 105 120 95" stroke="#ffffff" stroke-width="3" fill="none" stroke-linecap="round"/>

  <!-- Body -->
  <rect x="50" y="140" width="100" height="50" rx="8" fill="#7c3aed"/>

  <!-- Arms -->
  <rect x="15" y="155" width="35" height="20" rx="10" fill="#8b5cf6"/>
  <rect x="150" y="155" width="35" height="20" rx="10" fill="#8b5cf6"/>

  <!-- Chest plate -->
  <rect x="70" y="150" width="60" height="25" rx="6" fill="#a78bfa"/>
  <rect x="78" y="158" width="12" height="10" rx="2" fill="#7c3aed"/>
  <rect x="94" y="158" width="12" height="10" rx="2" fill="#7c3aed"/>
  <rect x="110" y="158" width="12" height="10" rx="2" fill="#7c3aed"/>
</svg>